# xmcd
#
# Track frame offsets:
#	300
#	19508
#	44722
#	59005
#	74283
#	89106
#	108402
#	131753
#	147040
#	163781
#	183930
#	213625
#
# Disc length: 3201 seconds
#
# Revision: 0
# Processed by: cddbd v1.5.2PL0 Copyright (c) Steve Scherf et al.
# Submitted via: audiograbber 1.83.01
#
DISCID=bb0c7d0c
DTITLE=CDPool - Street February 09 CD2
DYEAR=2009
DGENRE=R&B
TTITLE0=Rudenko - Everybody (Agent X Remix)
TTITLE1=Shontelle - T-Shirt (Crazy Cousinz Extended Mix)
TTITLE2=T-Pain Ft Ironik - Can't Believe It (FP Remix)
TTITLE3=New Kids On The Block - 2 In The Morning
TTITLE4=Estelle - Come Over (Full Phatt Remix)
TTITLE5=Laura Izibor Ft Truth - Shine (Blackout Entertainment Remix)
TTITLE6=Neighbour Ft MC Think Tank - Drunk On The Funk
TTITLE7=Dave VJ Ft Teisha O'Day - Just A little Bit Of This
TTITLE8=DJ Matchstick and Erica Iji - It's Over (Wittyboy Remix)
TTITLE9=Busy Signal - Tic Toc (GreenMoney Liquid Remix)
TTITLE10=Laura Steel - Running (Chunky B and Benny Rich Bassline Mix)
TTITLE11=Fyrefly - Emissary (Atomic's 2 Step Vocal Mix)
EXTD=
EXTT0=
EXTT1=
EXTT2=
EXTT3=
EXTT4=
EXTT5=
EXTT6=
EXTT7=
EXTT8=
EXTT9=
EXTT10=
EXTT11=
PLAYORDER=
